<?xml version="1.0" standalone="no"?>
<!DOCTYPE svg PUBLIC "-//W3C//DTD SVG 20010904//EN"
 "http://www.w3.org/TR/2001/REC-SVG-20010904/DTD/svg10.dtd">
<svg version="1.0" xmlns="http://www.w3.org/2000/svg"
 viewBox="0 0 1400 420"
 preserveAspectRatio="xMidYMid meet">
   <defs>
      <linearGradient id="SunGradient" gradientTransform="rotate(90)">
         <stop offset="10%"  stop-color="gold"/>
         <stop offset="90%" stop-color="red"/>
      </linearGradient>
   </defs>
   <circle id="Sun" cx="1172" cy="92" r="44" fill="url(#SunGradient)"/>
   <g transform="translate(0,420) scale(0.1,-0.1)" fill="#007DC6">
      <path d="M2345 3619 c-60 -4 -126 -13 -146 -19 -20 -5 -46 -10 -57 -10 -30 0
-254 -66 -310 -91 -119 -54 -241 -155 -271 -223 -63 -141 -48 -289 40 -399 53
-66 49 -67 -211 -67 -130 0 -230 -4 -230 -9 0 -5 16 -18 35 -30 70 -41 75 -61
75 -287 0 -150 -3 -204 -12 -211 -7 -5 -35 -15 -63 -22 -83 -20 -117 -42 -191
-117 -122 -124 -170 -251 -167 -444 2 -193 48 -320 157 -433 139 -146 339
-216 576 -204 287 16 451 117 523 322 7 18 13 173 17 380 l5 350 132 3 c125 2
135 1 183 -23 83 -42 150 -146 179 -278 5 -23 13 -89 16 -147 8 -129 -9 -221
-60 -324 -83 -166 -240 -280 -470 -342 l-100 -27 -722 -4 -721 -4 -41 36 c-22
20 -45 34 -51 30 -13 -8 -14 -272 0 -280 5 -3 25 11 44 32 l34 38 897 1 c645
1 913 5 958 13 197 38 319 76 415 129 48 27 181 153 219 208 39 56 83 152 105
231 19 65 23 102 23 223 -1 149 -14 235 -54 340 -17 44 -106 170 -120 170 -3
0 -18 11 -32 24 -28 26 -83 56 -151 82 -36 15 -93 18 -353 21 -194 3 -315 8
-322 15 -18 14 -19 373 -1 384 21 14 202 17 247 4 24 -6 57 -25 73 -41 16 -16
34 -29 39 -29 13 0 12 297 -2 305 -6 4 -18 -3 -26 -15 -9 -12 -39 -33 -67 -46
-43 -20 -67 -24 -152 -24 l-100 0 -30 33 c-151 161 -166 300 -49 443 43 52
154 131 216 154 260 96 686 25 830 -139 48 -54 91 -142 116 -236 17 -66 18
-125 15 -970 -4 -980 -2 -936 -63 -994 -18 -17 -30 -34 -27 -36 8 -8 517 -16
566 -9 l42 6 -30 35 c-66 75 -63 18 -56 966 6 890 5 901 -36 1022 -66 193
-213 353 -393 429 -209 87 -579 131 -890 105z m-700 -1149 l0 -195 -105 -5
c-58 -3 -111 -1 -117 4 -10 6 -13 57 -13 196 0 102 3 190 7 194 4 3 57 5 117
4 l111 -3 0 -195z m-7 -674 c2 -258 0 -318 -13 -356 -24 -73 -84 -120 -180
-140 -164 -34 -335 59 -395 216 -32 83 -40 261 -15 336 33 102 85 164 195 230
l45 28 180 -3 180 -2 3 -309z"/>
      <path d="M8310 2880 c-54 -62 -34 -60 -684 -60 -326 0 -595 -3 -599 -6 -3 -3
15 -20 40 -38 79 -53 84 -70 81 -300 l-3 -200 -50 -11 c-100 -23 -155 -60
-248 -166 -105 -118 -153 -304 -127 -489 36 -260 181 -436 421 -513 187 -60
489 -40 628 42 28 17 58 31 65 31 8 0 47 -13 87 -30 152 -61 302 -86 458 -77
198 12 311 57 426 172 67 66 101 121 135 217 28 81 39 285 20 392 -32 186
-160 331 -355 402 -42 16 -93 19 -335 24 l-285 5 -3 192 c-3 215 -3 214 68
209 19 -2 74 -4 122 -5 82 -1 89 -3 132 -36 26 -19 48 -35 51 -35 3 0 5 70 5
155 0 169 -4 178 -50 125z m-782 -399 c2 -127 -1 -188 -9 -197 -17 -20 -212
-20 -228 0 -15 18 -11 367 4 379 6 4 60 6 120 5 l110 -3 3 -184z m-11 -671 c1
-168 -3 -321 -8 -341 -14 -55 -49 -100 -103 -134 -46 -28 -56 -30 -145 -30
-89 0 -102 3 -163 33 -94 46 -141 103 -174 209 -24 75 -26 95 -22 201 3 99 8
125 28 167 31 63 101 133 171 174 l54 31 180 -2 180 -3 2 -305z m813 284 c165
-76 237 -202 228 -393 -7 -137 -43 -225 -123 -306 -89 -90 -116 -100 -255 -98
-85 1 -128 6 -165 20 -46 18 -50 22 -47 49 2 16 6 187 8 379 3 193 7 356 9
363 3 9 42 12 147 12 132 0 147 -2 198 -26z"/>
      <path d="M13234 2879 c-43 -49 -46 -49 -661 -49 -603 0 -638 -2 -783 -46 -56
-17 -70 -16 -198 10 -227 47 -508 43 -687 -9 -153 -44 -296 -128 -391 -227
-59 -61 -130 -164 -146 -211 -6 -18 -15 -37 -20 -44 -25 -31 -58 -195 -69
-337 -33 -426 50 -711 247 -846 106 -74 300 -97 420 -52 74 28 150 93 206 174
l40 61 82 -86 c61 -64 98 -93 151 -120 308 -153 721 -4 853 308 49 118 63 194
69 369 6 173 2 213 -39 411 -22 107 -72 217 -131 290 -42 52 -115 121 -149
143 -32 19 -36 38 -10 46 96 28 438 34 464 8 10 -10 12 -155 10 -725 -2 -392
-6 -723 -9 -737 -9 -37 -43 -89 -65 -101 -50 -27 -8 -31 286 -30 164 1 302 4
308 7 5 4 -4 20 -20 38 -16 17 -35 41 -41 53 -13 25 -21 1025 -12 1328 7 198
-5 183 141 175 80 -5 94 -9 134 -38 24 -18 47 -32 50 -32 3 0 6 65 6 145 0 80
-4 145 -8 145 -5 0 -17 -10 -28 -21z m-1957 -220 c152 -17 175 -35 106 -81
-48 -32 -105 -89 -153 -153 -42 -55 -105 -174 -116 -218 -10 -42 -28 -43 -76
-4 -79 64 -116 79 -208 84 -47 3 -111 0 -143 -6 -60 -11 -157 -50 -157 -63 0
-5 -7 -8 -15 -8 -23 0 -19 17 21 89 107 194 268 313 483 356 85 16 140 17 258
4z m372 -178 c46 -46 108 -135 146 -210 100 -198 111 -582 23 -761 -79 -159
-208 -226 -337 -174 -81 32 -180 186 -217 334 -33 132 -24 410 17 490 4 8 22
46 41 84 20 43 58 97 98 139 64 69 153 137 177 137 7 0 30 -17 52 -39z m-945
-571 c42 -38 61 -83 77 -189 13 -92 2 -208 -27 -295 -22 -64 -72 -106 -128
-106 -55 0 -87 24 -120 93 -57 116 -57 317 -1 434 46 94 132 121 199 63z"/>
      <path d="M6797 2862 c-48 -50 -70 -52 -705 -52 l-587 0 -95 -26 c-116 -32
-120 -32 -249 -5 -299 62 -592 48 -791 -38 -132 -57 -192 -96 -285 -186 -193
-188 -267 -435 -252 -845 10 -294 88 -485 239 -593 145 -103 365 -115 494 -27
58 41 115 98 147 148 15 23 32 42 38 42 6 0 45 -36 87 -81 121 -128 219 -169
411 -169 87 0 131 5 185 21 233 70 375 215 447 460 17 60 23 108 26 255 11
397 -74 646 -274 805 -35 27 -63 56 -63 64 0 23 62 30 280 30 l205 0 -3 -720
c-2 -396 -6 -733 -9 -748 -2 -15 -20 -48 -39 -73 -19 -25 -32 -50 -28 -56 5
-7 62 -9 188 -5 100 4 232 7 294 7 126 0 131 4 80 58 l-33 33 0 752 0 752 75
3 c111 5 154 -4 205 -44 25 -19 47 -34 50 -34 3 0 5 68 5 150 0 83 -4 150 -8
150 -5 0 -20 -13 -35 -28z m-1872 -225 c28 -8 51 -20 53 -28 1 -8 -24 -33 -57
-57 -101 -74 -189 -197 -241 -336 -12 -31 -27 -56 -34 -56 -7 0 -29 14 -47 31
-122 111 -348 120 -506 19 -29 -19 -38 -8 -25 30 20 55 85 144 162 220 94 94
222 162 345 185 91 17 269 12 350 -8z m301 -190 c108 -116 167 -244 199 -432
19 -112 16 -258 -10 -392 -26 -135 -98 -246 -190 -292 -38 -19 -58 -23 -114
-19 -85 4 -125 29 -185 113 -99 138 -131 263 -124 486 5 160 24 236 90 347 55
94 220 248 269 252 4 0 33 -28 65 -63z m-957 -556 c56 -56 66 -99 66 -271 -1
-126 -4 -152 -24 -202 -30 -77 -68 -108 -131 -108 -45 0 -51 3 -84 42 -68 79
-94 247 -61 393 28 126 77 184 158 185 30 0 44 -7 76 -39z"/>
      <path d="M10264 2869 c-46 -52 -46 -52 -669 -57 -319 -2 -582 -6 -585 -9 -3
-3 0 -8 7 -10 31 -11 79 -51 96 -80 18 -32 19 -64 17 -774 -1 -801 1 -779 -55
-835 -14 -14 -23 -29 -20 -34 3 -5 73 -8 155 -8 162 0 172 4 124 49 -62 58
-59 13 -59 819 l0 735 120 0 120 0 3 -783 c2 -754 1 -785 -17 -827 -33 -75
-58 -85 -469 -191 -148 -38 -163 -38 -261 -8 -22 7 -23 5 -17 -22 4 -16 14
-42 22 -59 8 -16 27 -59 41 -95 14 -36 31 -71 39 -79 11 -12 15 -10 24 14 6
15 24 45 41 66 34 43 -2 30 619 224 358 112 524 167 534 176 5 4 -8 16 -29 26
-21 10 -47 30 -59 46 -20 27 -20 36 -19 763 1 404 5 739 8 744 3 6 52 10 107
10 90 0 106 -3 145 -25 23 -14 43 -30 43 -35 0 -6 7 -10 15 -10 13 0 15 23 15
145 0 80 -4 145 -8 145 -5 0 -17 -10 -28 -21z"/>
   </g>
</svg>
