<?xml version="1.0" encoding="UTF-8" standalone="no"?>
<svg
   width="478.849"
   height="57.756001"
   viewBox="0 0 478.849 57.756"
   version="1.1"
   id="svg3"
   sodipodi:docname="thehindu-logo.svg"
   inkscape:version="1.1.1 (3bf5ae0d25, 2021-09-20)"
   xmlns:inkscape="http://www.inkscape.org/namespaces/inkscape"
   xmlns:sodipodi="http://sodipodi.sourceforge.net/DTD/sodipodi-0.dtd"
   xmlns="http://www.w3.org/2000/svg"
   xmlns:svg="http://www.w3.org/2000/svg">
  <defs
     id="defs7" />
  <sodipodi:namedview
     id="namedview5"
     pagecolor="#ffffff"
     bordercolor="#666666"
     borderopacity="1.0"
     inkscape:pageshadow="2"
     inkscape:pageopacity="0.0"
     inkscape:pagecheckerboard="0"
     showgrid="false"
     inkscape:zoom="0.77728177"
     inkscape:cx="230.28972"
     inkscape:cy="38.596042"
     inkscape:window-width="1920"
     inkscape:window-height="986"
     inkscape:window-x="-11"
     inkscape:window-y="-11"
     inkscape:window-maximized="1"
     inkscape:current-layer="svg3" />
  <path
     id="Path_1"
     data-name="Path 1"
     d="m 164.669,41.192 h -1.01 c -2.463,9.4 -6.045,13.875 -15.339,13.875 -9.851,0 -11.751,-1.452 -11.751,-12.423 V 28.99 h 5.04 c 6.711,0 10.97,1.452 11.527,9.512 h 0.9 l -0.224,-10.855 0.224,-9.736 h -0.9 c -0.557,7.273 -5.93,9.179 -11.866,9.179 h -4.7 V 2.572 h 3.582 c 5.936,0 14.552,0.224 18.249,6.378 1.23255,2.386506 2.06271,4.9601 2.457,7.617 h 0.9 c -0.229,-3.358 -0.229,-6.5 -0.229,-9.851 L 161.758,0 c -9.179,1.119 -18.921,0.9 -28.1,0.9 L 118.1,0.672 v 1 c 6.154,0.339 8.278,1.119 8.278,8.169 v 38.06 c 0,6.94 -2.233,7.727 -8.278,8.174 v 0.9 c 5.821,-0.224 11.751,-0.224 17.572,-0.224 9.064,0 18.358,-0.115 27.537,0.9 l 0.6,-8.229 0.857,-8.224 m -51.715,15.777 v -0.891 c -6.045,-0.448 -8.4,-1.234 -8.4,-8.174 V 9.845 c 0,-6.94 2.239,-7.83 8.4,-8.169 v -1 L 99.4,0.895 86.085,0.672 v 1 c 6.263,0.339 8.278,1.119 8.278,8.169 v 16.91 L 79.816,26.866 H 68.955 V 9.845 c 0,-6.94 2.239,-7.83 8.393,-8.169 v -1 L 63.921,0.9 50.6,0.672 v 1 c 6.159,0.339 8.284,1.119 8.284,8.169 v 38.06 c 0,6.94 -2.239,7.727 -8.284,8.174 v 0.9 l 13.324,-0.224 13.427,0.224 V 56.084 C 71.306,55.636 68.958,54.85 68.958,47.91 V 28.542 l 12.313,-0.109 13.094,0.109 v 19.363 c 0,6.94 -2.015,7.727 -8.278,8.174 v 0.9 L 99.4,56.751 112.948,56.975 M 47.572,17.796 47.463,6.602 47.572,0.109 C 44.637711,0.4602319 41.686145,0.6478555 38.731,0.671 L 28.1,0.784 H 19.587 L 8.731,0.672 C 5.8122011,0.6540954 2.8969259,0.4661101 0,0.109 L 0.115,6.602 0,17.796 H 0.786 C 2.686,8.502 4.363,2.457 16.686,2.457 h 1.791 L 18.7,18.691 v 29.214 c 0,6.159 -2.239,7.612 -9.408,8.174 v 0.9 L 23.85,56.755 38.288,56.979 V 56.084 C 31.233,55.522 28.776,54.069 28.776,47.91 V 18.691 L 29,2.457 h 2 c 11.194,0 14,6.607 15.677,15.339 h 0.89"
     fill="#161615"
     sodipodi:nodetypes="ccsscscccccsccsccccccccssccscccccsscccccscccscccccsscccccscccscccccccccccccccsccscccccsccscc" />
  <path
     d="m 478.849,1.676 v -1 L 468.441,0.9 456.241,0.676 v 1 c 9.061,0.448 11.308,3.921 11.308,13.548 V 35.93 c 0,12.537 -4.144,19.587 -16.343,19.587 -11.309,0 -14.328,-7.273 -14.328,-18.691 V 9.736 c 0,-6.831 2.233,-7.721 8.284,-8.06 v -1 L 431.948,0.9 418.521,0.676 v 1 c 6.045,0.339 8.278,1.119 8.278,8.06 v 30.339 c 0,14.323 11.756,17.681 22.612,17.681 12.767,0 20.488,-6.269 20.488,-20.821 V 15.224 c 0,-6.957 0.431,-11.767 6.159,-13.16 z m -73.547,28.1 -0.18,4.942 c -0.873,11.008 -4.964,18.266 -15.153,20.127 -1.50998,0.295764 -3.04995,0.409575 -4.587,0.339 -5.6,-0.115 -7.727,-2.577 -7.727,-8.731 V 3.129 c 1.65514,-0.355726 3.34213,-0.542352 5.035,-0.557 14.59,0 21.7,9.742 22.53,24.239 l 0.082,2.965 m 1.847,21.143 1.835,-1.573 c 4.658,-4.461 7.4,-11.123 7.4,-20.69 0,-20.379 -14.661,-27.985 -31.567,-27.985 L 372.949,0.895 359.178,0.671 v 1 c 6.159,0.339 8.289,1.119 8.289,8.169 V 47.9 c 0,6.94 -2.244,7.727 -8.289,8.174 v 0.9 l 13.671,-0.223 c 3.129,0 6.269,0.224 9.4,0.333 2.61521,0.153543 5.23882,0.07859 7.841,-0.224 5.29778,-0.378664 10.4436,-1.938469 15.06,-4.565 l 2.009,-1.376 M 356.277,1.676 v -1 L 346.983,0.9 335.341,0.676 v 1 c 9.179,0.339 10.522,6.045 10.522,14.891 V 46.114 L 307.919,0.784 h -14.67 v 1.01 c 1.67436,-0.02476 3.34044,0.23945 4.925,0.781 4.7,1.9 5.149,8.507 5.149,13.209 v 25.3 c 0,7.273 0,14.438 -8.169,15 v 0.9 c 3.129,-0.115 6.378,-0.339 9.512,-0.339 3.806,0 7.5,0.224 11.194,0.339 v -0.9 c -8.731,-0.562 -10.3,-6.493 -10.3,-15 V 13.542 l 36.716,44.1 h 5.821 V 16.567 c 0,-6.509 0.2,-13.509 6.771,-14.727 l 1.4,-0.164 m -66.159,55.3 v -0.892 c -6.045,-0.448 -8.4,-1.234 -8.4,-8.174 V 9.845 c 0,-6.94 2.244,-7.83 8.4,-8.169 v -1 L 276.785,0.9 263.358,0.676 v 1 c 6.154,0.339 8.284,1.119 8.284,8.169 v 38.06 c 0,6.94 -2.244,7.727 -8.284,8.174 v 0.9 l 13.427,-0.224 13.324,0.224 m -31.791,0 v -0.895 c -5.936,-0.448 -8.393,-1.234 -8.393,-8.174 V 9.845 c 0,-6.94 2.348,-7.83 8.393,-8.169 v -1 L 244.776,0.9 231.562,0.676 v 1 c 6.159,0.339 8.174,1.119 8.174,8.169 v 16.906 l -14.443,0.115 H 214.449 V 9.845 c 0,-6.94 2.13,-7.83 8.284,-8.169 v -1 L 209.409,0.9 195.979,0.672 v 1 c 6.154,0.339 8.278,1.119 8.278,8.169 v 38.06 c 0,6.94 -2.239,7.727 -8.278,8.174 v 0.9 l 13.427,-0.224 13.324,0.224 v -0.891 c -6.045,-0.448 -8.284,-1.234 -8.284,-8.174 V 28.542 l 12.313,-0.109 12.985,0.109 v 19.363 c 0,6.94 -2.015,7.727 -8.174,8.174 v 0.9 l 13.214,-0.224 13.542,0.224"
     style="fill:#161615"
     id="path948-3-5" />
</svg>
